<svg xmlns="http://www.w3.org/2000/svg" width="476" height="475" viewBox="0 0 476 475">
  <defs>
    <linearGradient id="a" x1="60.324%" x2="54.178%" y1="16.978%" y2="60.499%">
      <stop stop-color="#F7E1C0" offset="0%"/>
      <stop stop-color="#E5AF9D" offset="100%"/>
    </linearGradient>
    <filter id="b" width="200%" height="200%" x="-50%" y="-50%" filterUnits="objectBoundingBox">
      <feGaussianBlur stdDeviation="20" in="SourceGraphic"/>
    </filter>
  </defs>
  <g fill="none" fill-rule="evenodd">
    <path fill="url(#a)" d="M237.165193,467.990646 C360.600835,467.990646 474.518709,344.906204 474.518709,216.5 C474.518709,88.0937957 373.789568,1.11410362 250.353927,1.11410362 C126.918285,1.11410362 9.04019326,74.6995728 9.04019326,203.105777 C9.04019326,331.511981 113.729552,467.990646 237.165193,467.990646 Z"/>
    <path fill="#4B3D41" d="M475.018709,216.5 C475.018709,154.256443 451.305632,99.6000548 409.065319,60.2887097 C367.906848,21.9841914 311.537635,0.614103618 250.353927,0.614103618 C187.71024,0.614103618 127.527928,19.4784999 83.1043418,53.5609155 C35.4184501,90.1462186 8.54019326,141.824192 8.54019326,203.105777 C8.54019326,266.159328 33.8619936,332.684709 76.4294375,384.019692 C120.429718,437.082631 178.089997,468.490646 237.165193,468.490646 C360.129896,468.490646 475.018709,345.979994 475.018709,216.5 Z M77.1992178,383.381383 C34.7768033,332.221301 9.54019326,265.919732 9.54019326,203.105777 C9.54019326,142.143358 36.2678399,90.7549584 83.713047,54.354312 C127.955031,20.4112244 187.922716,1.61410362 250.353927,1.61410362 C311.289116,1.61410362 367.413971,22.8915527 408.384048,61.0207406 C450.420745,100.142589 474.018709,154.533652 474.018709,216.5 C474.018709,345.441556 359.562743,467.490646 237.165193,467.490646 C178.411952,467.490646 121.021418,436.229564 77.1992178,383.381383 Z"/>
    <path fill="#F7E1C0" d="M473.040193,215.011064 C473.040193,86.8996896 399,97 399,97 L399,357.203714 C444.668236,330.174656 473.040193,284.665357 473.040193,215.011064 Z"/>
    <path fill="#FCF1EB" d="M356.817203,410.668293 C316.933839,449.251544 264.590868,473.60074 205.123664,473.60074 C64.5706209,473.60074 -32.594778,337.791735 11.9775905,202.211451 C49.7468954,87.3247344 141.994038,11.6943873 252.435547,23.0353618 C362.877056,34.3763363 437.560958,113.542146 437.560958,217.196546 C437.560958,261.014851 426.759113,303.996959 407.409637,341.869185 C411.4924,342.281785 415.04992,343.290231 417.687911,344.938631 C430.567922,352.986955 424.057787,379.22563 413.229132,396.555099 C402.877371,413.12138 383.533775,430.764495 356.817203,410.668293 L356.817203,410.668293 Z"/>
    <path fill="#4B3D41" d="M205.123664,473.10074 C64.7425991,473.10074 -31.9603048,337.462775 12.4525808,202.367606 C51.2474377,84.3613636 145.062263,12.5120853 252.384472,23.5327463 C362.262339,34.8158418 437.060958,113.506176 437.060958,217.196546 C437.060958,260.315835 426.568013,303.272024 406.964385,341.641698 C411.475016,342.782575 414.917864,343.797302 417.422952,345.362655 C428.682028,352.398107 425.319815,376.262423 412.805108,396.290139 C406.718148,406.031312 399.316714,413.39871 390.966671,416.899004 C380.612021,421.239618 369.309163,419.439083 357.117765,410.268715 C314.862618,450.55957 262.168587,473.10074 205.123664,473.10074 Z M391.353272,417.821251 C399.924349,414.228302 407.46641,406.720922 413.653156,396.820058 C426.428153,376.375791 429.868057,351.960041 417.952871,344.514607 C415.30338,342.859021 411.716724,341.801908 407.459911,341.371718 C427.529964,303.587159 438.060958,260.475202 438.060958,217.196546 C438.060958,112.981956 362.863799,33.8723458 252.486622,22.5379774 C144.66146,11.4656693 50.4352077,83.6300447 11.5026001,202.055297 C-33.1217754,337.793776 64.05809,474.10074 205.123664,474.10074 C262.435502,474.10074 315.376259,451.454028 357.164851,411.027655 C368.982342,420.44457 380.658278,422.304535 391.353272,417.821251 Z"/>
    <path fill="#EFC3BD" d="M134.333162,283.75442 C108.85773,260.954256 59.3669104,420.600807 204.4375,413.048725 C275.179174,409.366057 264.623559,294.916987 234.238588,294.916987 C228.256299,294.916987 228.519194,299.427894 222.214473,299.427894 C215.68127,299.427894 207.459822,289.96014 134.333162,283.75442 Z"/>
    <path fill="#955E66" d="M108.531859,311.341141 C113.74642,289.886323 125.424702,275.781469 134.333162,283.75442 C138.065337,284.071142 141.628447,284.396361 145.030897,284.728385 C131.300752,291.753748 118.975435,300.768684 108.531859,311.341141 L108.531859,311.341141 Z"/>
    <path fill="#4B3D41" d="M113.693823,295.172145 C107.22089,307.826241 103.715026,325.662967 104.931841,342.719122 C106.370956,362.891285 114.075478,380.595744 128.368841,393.201252 C145.195609,408.041003 170.441639,415.319158 204.463494,413.548049 C236.360282,411.887567 254.88921,387.322362 257.758833,352.643088 C260.255593,322.469833 249.444618,294.416987 234.238588,294.416987 C231.668174,294.416987 230.339048,295.014439 228.15405,296.690605 C225.944676,298.385396 224.719042,298.927894 222.214473,298.927894 C221.162509,298.927894 220.039167,298.677141 218.145222,298.052881 C218.083763,298.032624 213.168936,296.330826 211.126614,295.678363 C202.854207,293.035568 192.935304,290.704229 178.906437,288.459788 C166.582531,286.488119 151.870387,284.740878 134.375441,283.256211 C128.240415,277.630488 120.089461,282.669156 113.693823,295.172145 Z M178.748458,289.44723 C192.728713,291.683894 202.598744,294.003746 210.822295,296.630933 C212.850482,297.278881 217.759362,298.97862 217.83218,299.002621 C219.819447,299.65764 221.030151,299.927894 222.214473,299.927894 C224.977272,299.927894 226.394734,299.300488 228.651762,297.569164 C230.789305,295.929385 231.929215,295.416987 234.238588,295.416987 C248.626111,295.416987 259.21674,322.898069 256.762239,352.560622 C253.92966,386.792224 235.731467,410.918948 204.411506,412.549401 C170.634255,414.307777 145.644412,407.103478 129.030278,392.451251 C114.948294,380.032161 107.350844,362.573747 105.929305,342.647961 C104.725315,325.771558 108.195358,308.117072 114.584107,295.62755 C120.726398,283.619835 128.242002,278.973922 133.999713,284.126995 C151.76228,285.735298 166.450137,287.479655 178.748458,289.44723 Z"/>
    <path fill="#EFC3BD" d="M195.51495,242.738526 C243.295837,259.190805 286.111231,260.674966 291.145808,246.053492 C296.180385,231.432019 261.527654,206.241765 213.746766,189.789486 C165.965879,173.337207 123.150485,171.853046 118.115908,186.47452 C113.081331,201.095994 147.734062,226.286247 195.51495,242.738526 L195.51495,242.738526 Z" opacity=".5" filter="url(#b)"/>
    <path fill="#FFFFFF" d="M302.264516 240.294731C316.36826 251.790995 334.846619 250.231727 343.537086 236.812009 352.227554 223.39229 347.839227 203.193895 333.735484 191.697631 319.63174 180.201367 301.153381 181.760635 292.462914 195.180353 283.772446 208.600072 288.160773 228.798467 302.264516 240.294731L302.264516 240.294731zM130.056129 174.570666C148.269339 169.795881 159.443443 154.476776 155.014189 140.354487 150.584934 126.232199 132.229589 118.65455 114.016378 123.429334 95.8031676 128.204119 84.6290635 143.523224 89.0583182 157.645513 93.487573 171.767801 111.842918 179.34545 130.056129 174.570666L130.056129 174.570666z"/>
    <path fill="#4B3D41" d="M333.653747,245.549547 C347.119135,236.44193 351.025258,215.852782 342.421015,199.544276 C333.798698,183.201509 315.850854,177.308676 302.346253,186.442815 C288.880865,195.550432 284.974742,216.13958 293.578985,232.448086 C302.201302,248.790853 320.149146,254.683686 333.653747,245.549547 Z M302.906507,187.271136 C315.888144,178.490716 333.177649,184.167396 341.536563,200.010906 C349.913552,215.888677 346.114344,235.914282 333.093493,244.721226 C320.111856,253.501646 302.822351,247.824966 294.463437,231.981456 C286.086448,216.103685 289.885656,196.07808 302.906507,187.271136 Z M156.268299,153.975945 C157.737882,138.952098 143.591349,124.590447 124.717438,121.833713 C105.827987,119.074709 89.2759832,128.977794 87.804208,144.024055 C86.3346253,159.047902 100.481158,173.409553 119.355069,176.166287 C138.24452,178.925291 154.796524,169.022206 156.268299,153.975945 Z M88.7994581,144.121407 C90.2094174,129.707102 106.20035,120.139707 124.572911,122.823214 C142.961012,125.508991 156.685201,139.441875 155.273049,153.878593 C153.863089,168.292898 137.872157,177.860293 119.499596,175.176786 C101.111495,172.491009 87.3873063,158.558125 88.7994581,144.121407 Z"/>
    <path fill="#4B3D41" d="M340.426786,195.635017 C331.798505,178.161417 313.830948,171.855278 300.332263,181.674081 C286.883233,191.512449 282.97849,213.748176 291.572308,231.268096 C300.182676,248.757709 318.143336,254.854715 331.671092,244.841567 C345.123379,234.939979 349.017639,212.96891 340.426786,195.635017 Z M292.469795,230.827057 C284.078428,213.719863 287.889945,192.015015 300.921588,182.481976 C313.877416,173.058043 331.158109,179.123111 339.530467,196.078425 C347.916857,212.999772 344.116834,234.439168 331.077227,244.037003 C318.087066,253.652226 300.82145,247.791162 292.469795,230.827057 Z M110.165508,121.02325 C89.7037282,130.978247 79.5519533,155.51952 89.2899044,169.938 C98.2747736,183.239968 124.808168,184.888218 142.582564,174.804025 C161.112505,164.261169 169.610985,148.633082 161.726052,134.424124 C152.63172,118.035781 129.967903,111.389054 110.165508,121.02325 Z M142.088573,173.934558 C124.719923,183.788553 98.7629331,182.17611 90.1185928,169.37829 C80.7597515,155.521138 90.6407552,131.634438 110.602995,121.922474 C129.935426,112.516923 152.01962,118.993661 160.851662,134.909347 C168.411207,148.531945 160.201525,163.628953 142.088573,173.934558 Z"/>
    <path fill="#4B3D41" d="M337.587888,186.617354 C322.204754,174.28418 294.696258,176.247118 286.69948,190.692562 C277.304385,207.772704 278.311515,231.097439 291.996349,242.128383 C307.675262,254.72931 342.114205,253.466968 349.922175,239.081338 C358.123208,224.067639 352.364795,198.429033 337.587888,186.617354 Z M292.623358,241.349371 C279.374879,230.67016 278.390528,207.872978 287.575021,191.175704 C295.239025,177.33139 322.022979,175.420154 336.962939,187.39802 C351.36855,198.912909 357.008221,224.022832 349.043927,238.603134 C341.575353,252.363449 307.865256,253.599075 292.623358,241.349371 Z M114.681708,120.216778 C96.1183499,125.153297 85.7333108,142.045161 91.5409005,157.97171 C97.3431485,173.88109 117.001258,182.593261 135.430292,177.458827 C153.874075,172.295942 164.238556,155.34486 158.520125,139.607039 C152.820932,123.919605 133.203538,115.267112 114.681708,120.216778 Z M135.161318,176.49568 C117.213365,181.496081 98.0946065,173.022942 92.4803795,157.629103 C86.8861112,142.28756 96.9141141,125.976436 114.939293,121.183034 C132.985927,116.360356 152.06845,124.776938 157.580238,139.948525 C163.087384,155.104864 153.074195,171.481409 135.161318,176.49568 Z"/>
    <path fill="#4B3D41" d="M348.43303,201.465636 C341.15504,182.646092 321.360545,173.154465 304.222053,180.33731 C287.070613,187.576903 279.044122,208.854403 286.293197,227.761016 C293.54785,246.592909 313.365526,255.876967 330.569104,248.507826 C347.734924,241.206117 355.707915,220.188074 348.43303,201.465636 Z M287.226633,227.402275 C280.164613,208.983524 287.974238,188.280919 304.609756,181.259094 C321.208148,174.30261 340.418573,183.51417 347.500634,201.827074 C354.585824,220.061319 346.831151,240.503841 330.176519,247.588111 C313.50968,254.727339 294.283329,245.720301 287.226633,227.402275 Z M104.727613,126.177098 C89.3652199,137.708115 86.0641828,157.260282 97.4150766,169.85156 C108.754586,182.42892 130.244904,183.142646 145.408614,171.478445 C160.575341,159.782339 163.835134,140.182966 152.637605,127.733274 C141.476789,115.323094 120.046577,114.649447 104.727613,126.177098 Z M144.798425,170.68619 C130.030556,182.045902 109.129858,181.351758 98.1578037,169.181966 C87.223845,157.053184 90.4113929,138.173217 105.328408,126.976501 C120.254349,115.744604 141.100263,116.399884 151.89408,128.401982 C162.677882,140.391682 159.528576,159.326757 144.798425,170.68619 Z"/>
    <path fill="#4B3D41" d="M342.954163,204.608866 C337.082214,188.876142 321.096446,180.933704 307.249373,186.946908 C293.403823,193.002378 286.930944,210.781749 292.775887,226.577326 C298.62926,242.321055 314.634561,250.090196 328.5338,243.921219 C342.39014,237.814154 348.820082,220.251015 342.954163,204.608866 Z M293.713469,226.229564 C288.045124,210.911228 294.312457,193.696438 307.648889,187.863634 C320.943009,182.090556 336.336839,189.738893 342.017563,204.959266 C347.704417,220.123917 341.481396,237.121856 328.129309,243.006677 C314.779427,248.931829 299.373668,241.453711 293.713469,226.229564 Z M107.379744,127.917394 C92.1085569,135.610438 86.808867,151.581777 95.6223343,163.579817 C104.403933,175.533191 123.742454,178.858695 138.82304,171.042545 C153.936617,163.186344 159.204173,147.170972 150.512886,135.31077 C141.873141,123.5196 122.584338,120.235209 107.379744,127.917394 Z M138.36235,170.154984 C123.69901,177.754878 104.902313,174.522547 96.4282465,162.987782 C88.0070078,151.523694 93.0779108,136.241835 107.830174,128.810205 C122.621684,121.336734 141.373555,124.529699 149.706265,135.901839 C158.008379,147.230972 152.965156,162.564287 138.36235,170.154984 Z"/>
    <path fill="#4B3D41" d="M343.95677,237.083791 C352.793096,223.43884 348.34388,202.960186 334.051392,191.310072 C319.728879,179.635484 300.905289,181.223883 292.04323,194.908571 C283.206904,208.553522 287.65612,229.032176 301.948608,240.68229 C316.271121,252.356878 335.094711,250.768479 343.95677,237.083791 Z M292.882597,195.452136 C301.401474,182.297386 319.534602,180.76725 333.419576,192.08519 C347.334574,203.427605 351.662012,223.345741 343.117403,236.540226 C334.598526,249.694976 316.465398,251.225112 302.580424,239.907172 C288.665426,228.564757 284.337988,208.646621 292.882597,195.452136 Z M155.491274,140.204856 C150.973747,125.80112 132.340252,118.108642 113.889583,122.945679 C95.423723,127.786698 84.0569665,143.369919 88.5812328,157.795144 C93.0987596,172.19888 111.732255,179.891358 130.182924,175.054321 C148.648784,170.213302 160.01554,154.630081 155.491274,140.204856 Z M89.5354037,157.495882 C85.2011605,143.676529 96.1826121,128.62154 114.143174,123.91299 C132.118926,119.200457 150.196121,126.663277 154.537103,140.504118 C158.871346,154.323471 147.889895,169.37846 129.929333,174.08701 C111.953581,178.799543 93.8763864,171.336723 89.5354037,157.495882 Z"/>
    <path fill="#EFC3BD" d="M34.1292321 189.164543L33.7937754 189.535311 34.5353112 190.206225 34.8707679 189.835457 44.3707679 179.335457 44.7062246 178.964689 43.9646888 178.293775 43.6292321 178.664543 34.1292321 189.164543zM56.1130214 193.183381L55.7964025 193.57036 56.5703598 194.203598 56.8869786 193.816619 70.3869786 177.316619 70.7035975 176.92964 69.9296402 176.296402 69.6130214 176.683381 56.1130214 193.183381zM72.1292321 195.164543L71.7937754 195.535311 72.5353112 196.206225 72.8707679 195.835457 82.3707679 185.335457 82.7062246 184.964689 81.9646888 184.293775 81.6292321 184.664543 72.1292321 195.164543zM334.13312 301.160296L333.793416 301.527176 334.527176 302.206584 334.86688 301.839704 347.36688 288.339704 347.706584 287.972824 346.972824 287.293416 346.63312 287.660296 334.13312 301.160296zM321.146447 291.146447L320.792893 291.5 321.5 292.207107 321.853553 291.853553 335.353553 278.353553 335.707107 278 335 277.292893 334.646447 277.646447 321.146447 291.146447zM303.160296 282.13312L302.793416 282.472824 303.472824 283.206584 303.839704 282.86688 317.339704 270.36688 317.706584 270.027176 317.027176 269.293416 316.660296 269.63312 303.160296 282.13312zM40.842722 145.915193C40.842722 145.915193 68.9471628 111.37572 94.2401316 99.1866776L82.6164679 121.894326C82.6164679 121.894326 118.299548 87.9741982 149.567537 73.6932566L146.864001 107.117393C146.864001 107.117393 199.994492 61.000514 213.712274 55.6756785L196.249794 111.37572C196.249794 111.37572 220.862387 80.6627094 232.279811 81.1947985L241.873252 111.37572C251.741674 89.7654194 299.603516 40.844778 299.603516 40.844778 299.603516 40.844778 316.999178 109.438014 338.966694 136.568462 338.966694 136.568462 418.864926 25.16581 260.923931 8.94716283 61.6460732 8.94716283 40.842722 145.915193 40.842722 145.915193z"/>
    <path fill="#F7E1C0" d="M250.733043,2.55550987 C373.776611,2.55550987 468.515419,87.1577457 468.515419,215.26912 C468.515419,256.245772 457.590118,216.967604 434.885101,172.450409 C458.186444,294.046689 371.75536,386.776604 383.811472,447.860609 C375.403859,440.416324 370.949174,451.835461 364.32905,429.221114 C358.653861,409.834666 359.523445,356.167362 370.877702,301.556076 C354.78417,304.214053 342.682771,304.914988 342.682771,304.914988 C342.682771,304.914988 367.979907,272.299178 379.774362,221.731177 C363.64528,204.560137 318.028639,148.122404 320.269829,61.0431552 C296.239515,111.45947 296.239515,174.276624 296.239515,174.276624 C296.239515,174.276624 282.536859,168.419034 275.916735,145.804688 C270.57845,127.569101 268.631034,99.2961607 277.492318,53.7328679 C240.359317,95.1793386 236.625514,144.416941 236.625514,144.416941 C236.625514,144.416941 214.046361,124.304893 210.69264,105.611431 C213.415828,90.6684085 217.554332,69.6172372 235.590711,47.8132749 C201.397345,80.0452596 196.732936,113.341694 196.732936,113.341694 C196.732936,113.341694 191.022615,108.5 186.360814,97.1590255 C187.519086,83.0082824 200.829856,54.6865984 217.022377,39.4248161 C159.288874,70.0376813 144.638466,116.117188 144.638466,116.117188 C144.638466,116.117188 132.246189,100.199623 134.040193,82.3563939 C135.044331,72.3692033 141.520984,63.588984 152.290213,53.2388841 C93.4331373,86.5541948 80.2752878,136.11102 80.2752878,136.11102 C80.2752878,136.11102 75.8730469,132.137952 71.2112459,120.796978 C71.7371332,114.372151 75.1925754,104.243351 80.4135289,93.5057743 C27.2405314,146.770364 39.9917599,164.647204 34.8163035,164.647204 C28.3920087,164.647204 9.4264933,120.760364 65.8845152,69.6433294 C111.727169,25.7822942 180.347528,2.55550987 250.733043,2.55550987 Z"/>
    <path fill="#4B3D41" d="M88.5046168,79.7536286 C79.2941755,94.8265538 72.4639027,111.62211 71.6736999,120.606882 C73.6994574,125.535034 75.8184878,129.437367 77.9014043,132.420628 C78.6269666,133.459816 79.2949855,134.309164 79.889333,134.982007 C80.5036371,133.659887 80.9174054,132.457557 81.4236835,131.104205 C82.8683261,127.242476 84.7646666,122.941523 87.1671969,118.311192 C94.0280319,105.08849 103.567265,91.8680879 116.220508,79.5304777 C126.527376,69.4807125 138.424487,60.4991193 152.019792,52.8060953 C153.220084,51.6536348 154.492285,50.4632543 155.840825,49.2288242 C156.381816,48.7336111 157.126559,48.067151 158.027588,47.2700419 C158.515876,47.2831978 159.003066,47.297573 159.48956,47.3129759 C158.231455,48.4211845 157.206814,49.3341234 156.516035,49.9664501 C147.751494,57.9893546 142.252369,64.1195433 138.785855,70.0420853 C136.35934,74.1877879 134.957622,78.2297039 134.537685,82.406413 C133.718529,90.5537719 135.770591,98.9094699 139.699622,106.934568 C140.868862,109.322757 142.121641,111.501714 143.37386,113.426566 C143.811567,114.09939 144.217654,114.692036 144.577781,114.783386 C144.930634,113.829555 145.371183,112.724363 145.905274,111.480421 C147.429119,107.931258 149.397221,103.978588 151.856354,99.7233568 C158.878323,87.5726857 168.425384,75.4245088 180.871302,64.0878665 C190.415672,55.3941632 201.310574,47.5302406 213.69238,40.6847618 C214.769214,40.4863774 215.847411,40.3240581 216.925652,40.2072085 C202.101669,54.4580663 188.105015,81.9723568 186.823268,96.96893 C187.512964,98.646784 188.249088,100.238303 189.02536,101.745061 C190.791944,105.174029 192.682784,108.017406 194.571123,110.306569 C195.229785,111.105039 195.840244,111.776634 196.386635,112.325236 C196.763811,110.737917 197.086632,109.432518 197.495972,107.96317 C198.663989,103.770517 200.29078,99.1010234 202.451537,94.0739195 C208.621924,79.7182177 217.830258,65.3649639 230.677439,51.9705331 C232.394254,50.180587 234.168296,48.4175973 236.000479,46.6830288 C228.655224,57.2327454 222.671503,67.7487381 218.366017,78.9643958 C215.070915,87.5480358 213.029481,95.5772722 211.184782,105.523138 C211.398563,106.714737 211.695373,107.932037 212.072381,109.173409 C214.062194,115.725241 218.198394,122.747967 223.844309,129.898181 C226.71388,133.532321 229.789544,136.965248 232.865101,140.089922 C233.941348,141.183357 234.940471,142.159937 235.836711,143.006352 C236.150014,143.302238 236.427952,143.56061 236.126945,144.379133 C236.13262,144.304299 236.144928,144.159998 236.296576,142.710766 C236.45275,141.359392 236.668129,139.792875 236.952053,138.029123 C237.762622,132.993833 238.959457,127.384745 240.61736,121.345122 C245.353613,104.091276 252.832095,86.8375586 263.652701,70.7318224 C267.70239,64.7041359 272.151536,58.9532572 277.017087,53.5119148 C277.912717,48.9298238 278.909686,44.2107551 280.51001,39.3510882 C270.113203,87.3866244 269.383603,121.707823 276.396597,145.664213 C278.444192,152.6588 281.291412,158.475023 284.733648,163.222997 C287.308638,166.774755 290.064229,169.526457 292.816083,171.575933 C293.775831,172.290717 294.665315,172.866334 295.742959,173.768748 C295.747249,173.352452 295.754966,172.861268 295.766966,172.297868 C295.801222,170.689447 295.862866,168.824255 295.958735,166.723672 C296.232554,160.724049 296.725366,154.039592 297.491927,146.841291 C299.682263,126.273185 303.625049,105.704133 309.760038,86.5008249 C312.665955,77.4049295 315.994329,68.8544335 319.768843,60.9217429 C319.838689,58.3316975 319.949821,55.7256641 320.102988,53.1037269 C320.434678,53.4130227 320.750506,53.7234274 321.051819,54.0349809 C318.324312,103.699431 330.751895,147.608046 353.184386,185.191743 C360.292289,197.10042 367.907426,207.477063 375.521337,216.264385 C376.905233,217.861559 378.237587,219.345717 379.50948,220.715857 C381.584785,211.636197 383.134231,202.343612 384.092232,192.862989 C387.223942,161.870792 383.829024,130.537112 372.73809,99.2995498 C373.162229,99.4905618 373.584904,99.6869007 374.006115,99.8884702 C384.888543,130.9633 388.202515,162.133231 385.087165,192.963525 C382.406782,219.489278 375.118198,244.54401 364.645221,267.591752 C359.930883,277.966532 354.879487,287.241579 349.827268,295.290275 C348.058199,298.10858 346.415041,300.572704 344.939806,302.666808 C344.422922,303.400527 343.96378,304.035791 343.857413,304.334961 C344.841683,304.263985 345.983818,304.172686 347.270652,304.059026 C350.948673,303.734167 355.047593,303.295443 359.462038,302.72659 C363.138152,302.25288 366.814211,301.718367 370.469304,301.119853 C371.487267,296.212405 372.580565,291.346912 373.748545,286.557475 L409.208521,131.12857 C409.472087,131.474489 409.734747,131.821812 409.996501,132.170498 L374.721784,286.787149 C361.466877,341.14067 357.855808,405.328835 364.808911,429.08064 C366.966337,436.450408 368.966576,440.495527 371.145883,442.412763 C372.47395,443.581124 373.550559,443.90968 376.10342,444.197371 C379.771778,444.610771 381.57446,445.212082 383.320935,447.957426 C380.663709,434.494211 382.541658,419.034359 388.550338,399.104242 C391.002841,390.969565 394.084375,382.207369 398.400415,370.851346 C400.394956,365.603468 408.421105,344.991396 410.30515,340.058712 C426.18636,298.479568 434.52639,268.857288 437.432406,236.23053 C439.363373,214.550947 438.429486,193.209745 434.294762,171.935398 C434.834724,172.98 435.368138,174.022014 435.895014,175.060465 C439.518551,195.329757 440.267398,215.672933 438.428463,236.319247 C435.512487,269.057834 427.15068,298.757458 411.239327,340.415523 C409.353631,345.352528 401.327883,365.963571 399.335178,371.206618 C395.026758,382.54259 391.952304,391.284657 389.507771,399.392896 C383.542015,419.180641 381.682279,434.490557 384.302009,447.763792 L384.588762,449.216665 L383.480016,448.234957 C381.096836,446.124837 379.474122,445.583557 375.991435,445.191081 C373.250974,444.882249 372.007682,444.502825 370.485362,443.163571 C368.128026,441.089715 366.055542,436.898491 363.849189,429.361589 C357.497358,407.663733 359.870154,352.815814 370.253084,302.168363 C366.711098,302.743867 363.150445,303.259564 359.589843,303.718389 C355.161624,304.289017 351.049499,304.729154 347.358634,305.055149 C346.066357,305.169288 344.918875,305.261015 343.929336,305.332371 C343.582698,305.357367 341.613515,305.477759 341.613515,305.477759 C341.613515,305.477759 342.529992,304.291418 342.764059,303.975412 C343.155527,303.446903 343.610023,302.818068 344.122294,302.090896 C345.587502,300.011025 347.220838,297.561632 348.980301,294.758629 C354.009602,286.746445 359.039725,277.510457 363.734805,267.178056 C370.259216,252.819873 375.542525,237.680234 379.237716,221.890811 C377.819979,220.376736 376.325082,218.71908 374.765573,216.919229 C367.114661,208.089204 359.464974,197.665483 352.325709,185.70426 C331.224901,150.351683 318.93743,109.423386 319.714542,63.3977562 C316.351816,70.7071297 313.356932,78.5280665 310.712607,86.8051475 C304.600389,105.937181 300.669971,126.441709 298.486305,146.947184 C297.721964,154.124635 297.230626,160.789092 296.957695,166.769264 C296.862202,168.861609 296.800826,170.71871 296.766739,172.319162 C296.754818,172.878868 296.747158,173.366391 296.742905,173.779053 C295.988502,174.71309 295.89042,174.668151 294.970494,174.186106 C294.138155,173.717119 293.213122,173.118497 292.218775,172.377945 C289.3875,170.26932 286.559964,167.445773 283.924034,163.80996 C280.414458,158.969101 277.516549,153.049332 275.436874,145.945162 C269.202329,124.647953 269.038717,95.2950027 276.644024,55.4432798 C272.243978,60.4740676 268.194647,65.7646069 264.482761,71.2894965 C253.726803,87.2990083 246.290903,104.454486 241.581687,121.609834 C239.933675,127.613429 238.744347,133.187329 237.939343,138.188054 C237.657817,139.936907 237.444459,141.488723 237.160548,144.043103 C237.141047,144.248249 237.12928,144.386211 237.047658,145.462551 C237.047658,145.462551 236.138385,144.6514 235.991937,144.517286 C234.24526,142.87884 233.237465,141.893784 232.152415,140.791406 C229.052838,137.642328 225.953368,134.182828 223.05948,130.517894 C217.342933,123.278229 213.147689,116.155254 211.115536,109.464006 C210.727432,108.1861 210.42137,106.930856 210.200741,105.521788 C212.055877,95.3420543 214.111533,87.2568793 217.432442,78.6060135 C221.221673,68.7351853 226.300651,59.3997813 233,50.5372447 C232.495409,51.5285651 231.944364,52.0942892 231.399135,52.6627432 C218.63866,65.9667743 209.495131,80.2190155 203.370266,94.4688087 C201.227684,99.453628 199.615595,104.08092 198.459289,108.231537 C198.055117,109.682333 197.736853,110.969307 197.495152,112.077556 C197.410796,112.464347 197.342074,112.800873 197.226253,113.42317 C195.109954,112.460466 194.478499,111.765773 193.799714,110.942908 C191.866778,108.599683 189.936342,105.696763 188.136401,102.203048 C187.347094,100.670989 186.598967,99.0535201 185.862481,97.1182357 C187.094568,82.0656847 200.47322,55.4151676 215.151337,40.9999949 C202.465092,47.9343368 191.29506,55.945813 181.544695,64.8271507 C169.178015,76.091618 159.694516,88.1589155 152.72217,100.223719 C150.283292,104.443903 148.332772,108.361263 146.824159,111.874947 C146.29689,113.103001 145.862661,114.192336 145.515664,115.130339 C145.394576,115.457665 145.293115,115.742432 144.827255,117.173603 C144.827255,117.173603 143.994131,116.095304 143.76929,115.782153 C143.396602,115.263087 142.981875,114.657831 142.535628,113.97188 C141.262262,112.014521 139.989458,109.800735 138.801487,107.374288 C134.797402,99.1958921 132.702307,90.6649688 133.542701,82.3063748 C133.977709,77.9797779 135.426685,73.8015891 137.922819,69.536943 C140.461621,65.1993979 144.051249,60.775132 149.155687,55.6225089 C137.025077,62.8277321 126.307427,71.0918608 116.918628,80.2464581 C104.345231,92.5062144 94.8684004,105.640133 88.0548246,118.771753 C85.6713111,123.365434 83.7911747,127.629636 82.3602919,131.454583 C81.8601361,132.791569 81.4519775,133.977599 81.1290465,134.998944 C80.8011442,136.083629 80.7721545,136.188068 80.7585441,136.239329 C79.7887652,136.34545 79.5165363,136.070466 79.1398611,135.644043 C78.5203318,134.942692 77.8287926,134.06344 77.0814801,132.9931 C74.9561833,129.94914 72.8021102,125.982274 70.7129125,120.756188 C71.205472,114.738531 74.203246,105.637108 78.7321967,95.8804626 C66.9754199,107.836545 57.8849552,118.705008 51.1749876,128.571296 C45.4473163,136.993223 41.7419086,144.271582 39.5470033,150.742557 C38.7156433,153.193555 38.1331953,155.429265 37.7066744,157.635475 C37.5464976,158.464001 37.4151824,159.247997 37.2796467,160.151305 C37.2542037,160.320876 37.0468967,161.750327 36.9907614,162.103317 C36.6335762,164.349374 36.1771347,165.147204 34.8163035,165.147204 C32.7662757,165.147204 30.2221485,161.861297 28.4508961,156.884334 C26.3626506,151.016666 25.518973,143.52409 26.364111,135.294432 C28.6175217,113.351506 41.9933677,89.6265369 68.7636108,66.4255077 C63.9927472,71.5747686 59.1510149,76.4443841 54.6650048,81.4602073 C50.5558817,85.9463612 46.9304699,90.4320135 43.7718655,94.9005651 C43.2633451,95.598077 42.761742,96.2979019 42.2671561,97 C33.4972246,110.040822 28.6303328,123.015619 27.3588793,135.396589 C26.5286736,143.480842 27.3555276,150.82401 29.3930113,156.549044 C31.0322174,161.154977 33.3489619,164.147204 34.8163035,164.147204 C35.4880476,164.147204 35.7167269,163.747487 36.0031714,161.946263 C36.0580298,161.601302 36.264377,160.178469 36.2907167,160.002922 C36.4281804,159.086764 36.561724,158.289464 36.7248541,157.445662 C37.1597404,155.196182 37.7535961,152.916684 38.5999977,150.42134 C40.8248862,143.861969 44.5712382,136.503185 50.3480959,128.008935 C57.4702335,117.536595 67.2525742,105.950295 80.0325491,93.1477642 C82.2882124,88.5202011 84.8613924,83.7979311 87.651315,79.2322112 C94.172949,68.5595303 101.152304,59.8080174 107.970857,53.9646983 C109.012526,53.5353614 110.041898,53.1326926 111.056653,52.7592396 C103.590377,58.4083849 95.7638709,67.8738292 88.5046168,79.7536286 Z"/>
  </g>
</svg>
